{"title":"Sex.And The City 2  2010.DvDRip.H264.Feel-Free","uid":5871108,"size":1223102200,"categoryP":"video","categoryS":"movies","magnet":"?xt=urn:btih:09835ea857aa10a0ba37441e73e2dc497fa87820&amp;dn=Sex.And+The+City+2++2010.DvDRip.H264.Feel-Free&amp;tr=udp%3A%2F%2Ftracker.openbittorrent.com%3A80&amp;tr=udp%3A%2F%2Fopen.demonii.com%3A1337&amp;tr=udp%3A%2F%2Ftracker.coppersurfer.tk%3A6969&amp;tr=udp%3A%2F%2Fexodus.desync.com%3A6969","seeders":0,"leechers":0,"uploader":"neon","files":-1,"time":1286410957,"description":"While wrestling with the pressures of life, love, and work in Manhattan, Carrie, Miranda,\nand Charlotte join Samantha for a trip to Morocco, where Samantha's ex is filming a new movie\n &lt;a href=&quot;\nhttp://www.starshare.ro/bitbucket/Sex.And.The.City.2010.DvDRip.H264.Feel-Free.mp4_snapshot_00.14.15_%5B2010.10.07_12.25.50%5D.jpg&quot; rel=&quot;nofollow&quot; target=&quot;_NEW&quot;&gt;\nhttp://www.starshare.ro/bitbucket/Sex.And.The.City.2010.DvDRip.H264.Feel-Free.mp4_snapshot_00.14.15_%5B2010.10.07_12.25.50%5D.jpg&lt;/a&gt;\n &lt;a href=&quot;\nhttp://www.starshare.ro/bitbucket/Sex.And.The.City.2010.DvDRip.H264.Feel-Free.mp4_snapshot_00.35.33_%5B2010.10.07_12.27.38%5D.jpg&quot; rel=&quot;nofollow&quot; target=&quot;_NEW&quot;&gt;\nhttp://www.starshare.ro/bitbucket/Sex.And.The.City.2010.DvDRip.H264.Feel-Free.mp4_snapshot_00.35.33_%5B2010.10.07_12.27.38%5D.jpg&lt;/a&gt;\n &lt;a href=&quot;\nhttp://www.starshare.ro/bitbucket/Sex.And.The.City.2010.DvDRip.H264.Feel-Free.mp4_snapshot_00.43.22_%5B2010.10.07_12.25.55%5D.jpg&quot; rel=&quot;nofollow&quot; target=&quot;_NEW&quot;&gt;\nhttp://www.starshare.ro/bitbucket/Sex.And.The.City.2010.DvDRip.H264.Feel-Free.mp4_snapshot_00.43.22_%5B2010.10.07_12.25.55%5D.jpg&lt;/a&gt;\n &lt;a href=&quot;\nhttp://www.youtube.com/watch?v=ZpxvYs55N8o&amp;feature=player_embedded&quot; rel=&quot;nofollow&quot; target=&quot;_NEW&quot;&gt;\nhttp://www.youtube.com/watch?v=ZpxvYs55N8o&amp;feature=player_embedded&lt;/a&gt;\n\nGenre:Comedy/Drama/Romance\nLanguage:English\nIMDb:http://www.imdb.com/title/tt1261945/\nSource:DVDR-BOW\n\n\nGeneral\nComplete name :Sex.And.The.City.2010.DvDRip.H264.Feel-Free\nFormat : MPEG-4\nFormat profile : Base Media\nCodec ID : isom\nFile size : 1.14 GiB\nDuration : 2h 26mn\nOverall bit rate : 1 112 Kbps\nVideo #2\nCodec ID : avc1\nCodec ID/Info : Advanced Video Coding\nDuration : 2h 26mn\nBit rate mode : Variable\nBit rate : 944 Kbps\nWidth : 720 pixels\nHeight : 384 pixels\nDisplay aspect ratio : 1.875\nFrame rate mode : Constant\nFrame rate : 29.970 fps\nOriginal frame rate : 29.000 fps\nResolution : 24 bits\nColorimetry : 4:2:0\nScan type : Progressive\nBits/(Pixel*Frame) : 0.114\nStream size : 989 MiB (85%)\nAudio #1\nID : 1\nFormat : AAC\nFormat/Info : Advanced Audio Codec\nFormat version : Version 4\nFormat profile : LC\nFormat settings, SBR : No\nCodec ID : 40\nDuration : 2h 26mn\nBit rate mode : Constant\nBit rate : 160 Kbps\nChannel(s) : 2 channels\nChannel positions : L R\nSampling rate : 48.0 KHz\nResolution : 16 bits\nStream size : 168 MiB (14%)","torrent":{"xt":"urn:btih:09835ea857aa10a0ba37441e73e2dc497fa87820","amp;dn":"Sex.And+The+City+2++2010.DvDRip.H264.Feel-Free","amp;tr":["udp%3A%2F%2Ftracker.openbittorrent.com%3A80","udp%3A%2F%2Fopen.demonii.com%3A1337","udp%3A%2F%2Ftracker.coppersurfer.tk%3A6969","udp%3A%2F%2Fexodus.desync.com%3A6969"],"infoHash":"09835ea857aa10a0ba37441e73e2dc497fa87820","infoHashBuffer":{"type":"Buffer","data":[9,131,94,168,87,170,16,160,186,55,68,30,115,226,220,73,127,168,120,32]},"announce":[],"urlList":[]}}